<?xml version="1.0" encoding="UTF-8"?>
<svg version="1.1" xmlns="http://www.w3.org/2000/svg" width="200" height="200">
<path d="M0 0 C66 0 132 0 200 0 C200 66 200 132 200 200 C134 200 68 200 0 200 C0 134 0 68 0 0 Z " fill="#2E3E48" transform="translate(0,0)"/>
<path d="M0 0 C0 7.92 0 15.84 0 24 C-3.361875 24.86625 -6.72375 25.7325 -10.1875 26.625 C-18.27512438 28.72579486 -26.33931205 30.8957624 -34.375 33.1875 C-35.6283313 33.54352295 -35.6283313 33.54352295 -36.90698242 33.90673828 C-41.58525659 35.25252385 -46.19671608 36.71345337 -50.78369141 38.3449707 C-53.46290641 39.13681184 -56.24423261 39.54070543 -59 40 C-59 46.93 -59 53.86 -59 61 C-57.02515625 60.41089844 -55.0503125 59.82179687 -53.015625 59.21484375 C-51.09623885 58.65154564 -49.17683119 58.08831809 -47.25683594 57.52709961 C-45.92504871 57.13582635 -44.59430003 56.74099965 -43.26464844 56.3425293 C-41.35109138 55.76974932 -39.43339132 55.21086848 -37.515625 54.65234375 C-35.78747559 54.14175415 -35.78747559 54.14175415 -34.02441406 53.62084961 C-31 53 -31 53 -27 54 C-27 60.93 -27 67.86 -27 75 C-28.629375 75.433125 -30.25875 75.86625 -31.9375 76.3125 C-37.03333019 77.70345365 -42.00283737 79.28864293 -47 81 C-50.96 82.32 -54.92 83.64 -59 85 C-59 104.47 -59 123.94 -59 144 C-75 149 -75 149 -81 149 C-81 115.67 -81 82.34 -81 48 C-93.10846541 50.90521878 -93.10846541 50.90521878 -104.875 54.5625 C-106.57269531 55.15224609 -106.57269531 55.15224609 -108.3046875 55.75390625 C-111.27093058 56.84038893 -111.27093058 56.84038893 -113 60 C-113.33004031 65.11562474 -113.07391455 68.27608353 -111 73 C-109.31259486 73.02746229 -107.6250537 73.04660111 -105.9375 73.0625 C-104.99777344 73.07410156 -104.05804688 73.08570312 -103.08984375 73.09765625 C-99.70840748 72.99078405 -96.34912261 72.47844609 -93 72 C-93 78.93 -93 85.86 -93 93 C-95.64 93 -98.28 93 -101 93 C-101 92.67 -101 92.34 -101 92 C-98.525 91.505 -98.525 91.505 -96 91 C-95.67 89.35 -95.34 87.7 -95 86 C-100.28 87.32 -105.56 88.64 -111 90 C-111 90.66 -111 91.32 -111 92 C-106.71 92.66 -102.42 93.32 -98 94 C-98 94.33 -98 94.66 -98 95 C-107.22251898 95.54678966 -114.38547061 95.80307292 -122 90 C-123.60875 88.8553125 -123.60875 88.8553125 -125.25 87.6875 C-131.95686343 81.13306529 -135.28007169 73.81194404 -135.5 64.4375 C-135.54483325 55.57274307 -132.89702143 48.36583603 -126.921875 41.671875 C-125 40 -125 40 -123 40 C-123 39.34 -123 38.68 -123 38 C-113.23700545 33.52977136 -103.52210546 30.16876007 -93.1875 27.3125 C-90.51335978 26.56199373 -87.84062575 25.80654982 -85.16796875 25.05078125 C-83.92378174 24.69983398 -82.67959473 24.34888672 -81.39770508 23.98730469 C-77.85581927 22.95810398 -74.36471013 21.82928329 -70.87670898 20.63256836 C-68.09177599 19.69387168 -65.26899336 18.91017485 -62.4375 18.125 C-56.86791261 16.55060016 -51.33795394 14.87950748 -45.81738281 13.14160156 C-39.11384295 11.03187416 -32.40223746 8.94880843 -25.6875 6.875 C-24.60243164 6.53823242 -23.51736328 6.20146484 -22.39941406 5.85449219 C-3.4229839 0 -3.4229839 0 0 0 Z " fill="#F7E7D4" transform="translate(170,21)"/>
<path d="M0 0 C0 5.61 0 11.22 0 17 C-4.95443933 18.70308852 -9.8330624 20.22781269 -14.92480469 21.47753906 C-18.18226903 22.29765361 -21.40407118 23.23605925 -24.625 24.1875 C-25.33285645 24.39528076 -26.04071289 24.60306152 -26.77001953 24.81713867 C-34.14598264 27.00398598 -41.4663132 29.36581848 -48.77587891 31.7644043 C-49.67226074 32.05484619 -50.56864258 32.34528809 -51.4921875 32.64453125 C-52.28995605 32.90596924 -53.08772461 33.16740723 -53.90966797 33.43676758 C-56 34 -56 34 -59 34 C-59 39.94 -59 45.88 -59 52 C-64.32084753 53.80090224 -69.59030173 55.45437192 -75 57 C-75 51.06 -75 45.12 -75 39 C-76.423125 39.48210937 -77.84625 39.96421875 -79.3125 40.4609375 C-81.20827877 41.09912045 -83.10411517 41.73713221 -85 42.375 C-85.93457031 42.69210938 -86.86914062 43.00921875 -87.83203125 43.3359375 C-93.18685108 45.13335954 -98.51306193 46.66632693 -104 48 C-107.3500774 49.32738916 -109.453646 50.3990106 -111.875 53.0625 C-113.8467371 58.21092465 -113.73697827 63.78906519 -112 69 C-113.74816858 69.50636607 -115.49862263 70.00484619 -117.25 70.5 C-118.22453125 70.7784375 -119.1990625 71.056875 -120.203125 71.34375 C-123 72 -123 72 -127 72 C-130.38757249 64.23681305 -131.30276091 58.071735 -128.5 49.9375 C-124.05007013 39.97151123 -115.87191394 34.88893579 -106 31 C-100.41733396 29.06446249 -94.73845722 27.45562079 -89.05175781 25.85791016 C-85.64317908 24.8996905 -82.23943709 23.92532185 -78.8359375 22.94921875 C-74.0252983 21.57017721 -69.21268836 20.19840468 -64.3984375 18.83203125 C-54.20355368 16.00813267 -54.20355368 16.00813267 -44.2109375 12.5625 C-38.46572972 10.34859153 -32.53148388 8.72272447 -26.625 7 C-24.28381532 6.31263231 -21.94266887 5.62513438 -19.6015625 4.9375 C-18.48426758 4.61136719 -17.36697266 4.28523438 -16.21582031 3.94921875 C-12.46582987 2.84232816 -8.7311836 1.68891448 -5.00146484 0.515625 C-3 0 -3 0 0 0 Z " fill="#C93B2B" transform="translate(167,25)"/>
<path d="M0 0 C0 0.33 0 0.66 0 1 C-1.76949612 1.50471197 -3.54065223 2.00360685 -5.3125 2.5 C-6.79169922 2.91765625 -6.79169922 2.91765625 -8.30078125 3.34375 C-11 4 -11 4 -14 4 C-14 10.93 -14 17.86 -14 25 C-12.02515625 24.41089844 -10.0503125 23.82179688 -8.015625 23.21484375 C-6.09623885 22.65154564 -4.17683119 22.08831809 -2.25683594 21.52709961 C-0.92504871 21.13582635 0.40569997 20.74099965 1.73535156 20.3425293 C3.64890862 19.76974932 5.56660868 19.21086848 7.484375 18.65234375 C9.21252441 18.14175415 9.21252441 18.14175415 10.97558594 17.62084961 C14 17 14 17 18 18 C18 24.93 18 31.86 18 39 C16.370625 39.433125 14.74125 39.86625 13.0625 40.3125 C8.80819909 41.4722712 4.63071116 42.74962072 0.4609375 44.1796875 C-3.65996194 45.55332065 -7.82484922 46.78428437 -11.984375 48.03515625 C-14.97377056 48.94535187 -14.97377056 48.94535187 -17.68359375 50.11328125 C-20.54979417 51.21046084 -22.95802031 51.14148743 -26 51 C-26 51.66 -26 52.32 -26 53 C-26.99 53 -27.98 53 -29 53 C-29 53.99 -29 54.98 -29 56 C-30.65 55.67 -32.3 55.34 -34 55 C-34.07421454 51.06739056 -34.12863136 47.13505278 -34.16479492 43.2019043 C-34.18728333 41.20672299 -34.22540198 39.21173787 -34.26367188 37.21679688 C-34.27333984 35.96318359 -34.28300781 34.70957031 -34.29296875 33.41796875 C-34.3086792 32.26063232 -34.32438965 31.1032959 -34.34057617 29.91088867 C-34 27 -34 27 -32.67773438 25.171875 C-28.51250219 22.26251608 -22.78299871 21.37333626 -18 20 C-17.67 14.06 -17.34 8.12 -17 2 C-10.63497506 -0.48633787 -6.703436 -1.3406872 0 0 Z " fill="#FBD6B9" transform="translate(125,57)"/>
<path d="M0 0 C0.33 33.33 0.66 66.66 1 101 C3.97 101 6.94 101 10 101 C10.99 101.33 11.98 101.66 13 102 C13 103.98 13 105.96 13 108 C6.44005839 111.00082435 0.28931903 113.07008961 -7 113 C-7.66 112.67 -8.32 112.34 -9 112 C-9 89.56 -9 67.12 -9 44 C-9.66 44 -10.32 44 -11 44 C-11 42.68 -11 41.36 -11 40 C-10.34 40 -9.68 40 -9 40 C-9 30.76 -9 21.52 -9 12 C-18.58418001 14.20081642 -18.58418001 14.20081642 -28 17 C-30.875 17.125 -30.875 17.125 -33 17 C-32.51062301 10.5157549 -32.51062301 10.5157549 -30.4453125 8.4296875 C-27.17420429 6.51718653 -23.73941767 5.4886655 -20.125 4.4375 C-18.73162861 4.02000561 -17.33839717 3.60204385 -15.9453125 3.18359375 C-15.27274414 2.98620605 -14.60017578 2.78881836 -13.90722656 2.58544922 C-12.20838926 2.06396793 -10.53501169 1.46113273 -8.8671875 0.84765625 C-6 0 -6 0 0 0 Z " fill="#1F2D34" transform="translate(89,69)"/>
<path d="M0 0 C0 7.92 0 15.84 0 24 C-3.361875 24.86625 -6.72375 25.7325 -10.1875 26.625 C-19.26289961 28.97083487 -28.28482334 31.46007504 -37.25854492 34.17041016 C-41.26561941 35.35243569 -44.77060602 36.36251948 -49 36 C-49 35.34 -49 34.68 -49 34 C-48.38068604 33.80365967 -47.76137207 33.60731934 -47.12329102 33.4050293 C-44.26947867 32.49986354 -41.41598804 31.59368757 -38.5625 30.6875 C-37.58861328 30.37876953 -36.61472656 30.07003906 -35.61132812 29.75195312 C-31.0858451 28.31409063 -26.56823774 26.86191823 -22.0703125 25.33984375 C-19.17172481 24.36823378 -16.30845857 23.50272465 -13.3125 22.875 C-12.62800781 22.72804688 -11.94351563 22.58109375 -11.23828125 22.4296875 C-8.50112276 21.9042295 -5.74921678 21.4582028 -3 21 C-3 15.39 -3 9.78 -3 4 C-5.145 4.680625 -7.29 5.36125 -9.5 6.0625 C-16.59410451 8.2974221 -23.72785583 10.37943963 -30.875 12.4375 C-37.88830025 14.46044168 -44.84805843 16.56212494 -51.75 18.9375 C-59.38486916 21.5571171 -67.10951771 23.800609 -74.875 26 C-76.07737305 26.34135986 -77.27974609 26.68271973 -78.51855469 27.03442383 C-83.01647351 28.3096479 -87.51458247 29.58404462 -92.01660156 30.84472656 C-112.32574291 35.99964 -112.32574291 35.99964 -128 49 C-132.36297392 56.84032926 -133.09362434 63.93009241 -131 72.5625 C-130.67 73.696875 -130.34 74.83125 -130 76 C-129.08476562 75.76023437 -128.16953125 75.52046875 -127.2265625 75.2734375 C-126.03804687 74.97695312 -124.84953125 74.68046875 -123.625 74.375 C-122.44164062 74.07335937 -121.25828125 73.77171875 -120.0390625 73.4609375 C-119.03617188 73.30882813 -118.03328125 73.15671875 -117 73 C-116.34 73.66 -115.68 74.32 -115 75 C-116.60256108 75.50512244 -118.20711792 76.00391627 -119.8125 76.5 C-120.70582031 76.7784375 -121.59914063 77.056875 -122.51953125 77.34375 C-125 78 -125 78 -128 78 C-127.07161713 79.31896465 -126.13194268 80.62998689 -125.1875 81.9375 C-124.40439453 83.03384766 -124.40439453 83.03384766 -123.60546875 84.15234375 C-122.04132873 86.26883226 -122.04132873 86.26883226 -119 87 C-116.81531088 86.58733233 -116.81531088 86.58733233 -114.47265625 85.78515625 C-113.59802734 85.51123047 -112.72339844 85.23730469 -111.82226562 84.95507812 C-110.91154297 84.66052734 -110.00082031 84.36597656 -109.0625 84.0625 C-107.2633417 83.48579752 -105.46260564 82.91398877 -103.66015625 82.34765625 C-102.86230713 82.08992432 -102.06445801 81.83219238 -101.24243164 81.56665039 C-99 81 -99 81 -95 81 C-95 79.35 -95 77.7 -95 76 C-95.53109375 76.16371094 -96.0621875 76.32742187 -96.609375 76.49609375 C-99.53876764 77.11356377 -102.25822936 77.09501925 -105.25 77.0625 C-106.32765625 77.05347656 -107.4053125 77.04445313 -108.515625 77.03515625 C-109.74539062 77.01775391 -109.74539062 77.01775391 -111 77 C-111.33 76.01 -111.66 75.02 -112 74 C-111.0925 74.04125 -110.185 74.0825 -109.25 74.125 C-103.74656086 74.14769459 -98.3986022 72.97053523 -93 72 C-93 78.93 -93 85.86 -93 93 C-95.64 93 -98.28 93 -101 93 C-101 92.67 -101 92.34 -101 92 C-98.525 91.505 -98.525 91.505 -96 91 C-95.67 89.35 -95.34 87.7 -95 86 C-100.28 87.32 -105.56 88.64 -111 90 C-111 90.66 -111 91.32 -111 92 C-106.71 92.66 -102.42 93.32 -98 94 C-98 94.33 -98 94.66 -98 95 C-107.22251898 95.54678966 -114.38547061 95.80307292 -122 90 C-123.60875 88.8553125 -123.60875 88.8553125 -125.25 87.6875 C-131.95686343 81.13306529 -135.28007169 73.81194404 -135.5 64.4375 C-135.54483325 55.57274307 -132.89702143 48.36583603 -126.921875 41.671875 C-125 40 -125 40 -123 40 C-123 39.34 -123 38.68 -123 38 C-113.23700545 33.52977136 -103.52210546 30.16876007 -93.1875 27.3125 C-90.51335978 26.56199373 -87.84062575 25.80654982 -85.16796875 25.05078125 C-83.92378174 24.69983398 -82.67959473 24.34888672 -81.39770508 23.98730469 C-77.85581927 22.95810398 -74.36471013 21.82928329 -70.87670898 20.63256836 C-68.09177599 19.69387168 -65.26899336 18.91017485 -62.4375 18.125 C-56.86791261 16.55060016 -51.33795394 14.87950748 -45.81738281 13.14160156 C-39.11384295 11.03187416 -32.40223746 8.94880843 -25.6875 6.875 C-24.60243164 6.53823242 -23.51736328 6.20146484 -22.39941406 5.85449219 C-3.4229839 0 -3.4229839 0 0 0 Z " fill="#EACEC2" transform="translate(170,21)"/>
<path d="M0 0 C0 5.61 0 11.22 0 17 C-0.33 17 -0.66 17 -1 17 C-1.33 46.37 -1.66 75.74 -2 106 C-2.33 106 -2.66 106 -3 106 C-3 72.67 -3 39.34 -3 5 C-15.10846541 7.90521878 -15.10846541 7.90521878 -26.875 11.5625 C-28.00679687 11.95566406 -29.13859375 12.34882812 -30.3046875 12.75390625 C-33.27093058 13.84038893 -33.27093058 13.84038893 -35 17 C-35.48231893 23.81681966 -35.48231893 23.81681966 -33 30 C-29.94727535 30.89830839 -29.94727535 30.89830839 -27 31 C-27 31.33 -27 31.66 -27 32 C-28.98 32 -30.96 32 -33 32 C-33 32.66 -33 33.32 -33 34 C-25.08 33.505 -25.08 33.505 -17 33 C-17 34.65 -17 36.3 -17 38 C-17.97839844 38.25394531 -18.95679687 38.50789063 -19.96484375 38.76953125 C-21.28913363 39.11691646 -22.61334733 39.46459215 -23.9375 39.8125 C-24.62247559 39.99047119 -25.30745117 40.16844238 -26.01318359 40.35180664 C-29.81565209 41.35649474 -33.45685019 42.50511552 -37.125 43.9375 C-40.14254631 44.9735431 -40.67169596 45.11673032 -43.8125 44 C-46.19673575 41.82012732 -48.16016614 39.65753779 -50 37 C-50 36.34 -50 35.68 -50 35 C-49.22914062 34.72285156 -48.45828125 34.44570312 -47.6640625 34.16015625 C-46.15972656 33.61681641 -46.15972656 33.61681641 -44.625 33.0625 C-43.12839844 32.52302734 -43.12839844 32.52302734 -41.6015625 31.97265625 C-39.06495835 31.07650708 -39.06495835 31.07650708 -37 30 C-37.66 29.01 -38.32 28.02 -39 27 C-39.71571148 22.1647864 -39.48879051 18.09977864 -37.5 13.625 C-32.11624102 7.97205307 -25.60818441 6.50232704 -18.17578125 4.79296875 C-13.85333494 3.71368634 -9.69251491 2.25750529 -5.49609375 0.76953125 C-3 0 -3 0 0 0 Z " fill="#D6C2B9" transform="translate(92,64)"/>
<path d="M0 0 C1.10844919 3.32534757 0.84454356 5.62182575 0 9 C-4.92737019 10.97094808 -8.78020872 11.1799928 -14 11 C-14 11.66 -14 12.32 -14 13 C-14.65226562 13.12117188 -15.30453125 13.24234375 -15.9765625 13.3671875 C-16.85054687 13.53476562 -17.72453125 13.70234375 -18.625 13.875 C-19.91277344 14.11863281 -19.91277344 14.11863281 -21.2265625 14.3671875 C-24.23994281 15.05474751 -27.07686674 15.99562293 -30 17 C-32.70389709 17.86834435 -35.41446269 18.71514279 -38.125 19.5625 C-38.82753906 19.78357422 -39.53007813 20.00464844 -40.25390625 20.23242188 C-43.49005918 21.24486669 -46.70883726 22.17720932 -50 23 C-50 19.7 -50 16.4 -50 13 C-49.0821875 12.74605469 -48.164375 12.49210937 -47.21875 12.23046875 C-39.52365843 10.12933578 -39.52365843 10.12933578 -32 7.5 C-26.155916 5.19511342 -20.05058653 3.66108392 -14 2 C-13.1853125 1.76925781 -12.370625 1.53851563 -11.53125 1.30078125 C-7.60094355 0.23506354 -4.06997398 -0.2034987 0 0 Z " fill="#242F36" transform="translate(161,48)"/>
<path d="M0 0 C0.04898438 1.0621875 0.09796875 2.124375 0.1484375 3.21875 C0.22354829 4.64585497 0.2990924 6.07293719 0.375 7.5 C0.4059375 8.19609375 0.436875 8.8921875 0.46875 9.609375 C0.66839287 13.20294675 1.06885214 16.25037144 2.03125 19.75 C3.52230292 25.25834837 3.21307005 30.83641808 3.125 36.5 C3.11597656 37.60859375 3.10695313 38.7171875 3.09765625 39.859375 C3.07426167 42.57314592 3.04148175 45.28645545 3 48 C2.34 47.67 1.68 47.34 1 47 C1.33 40.07 1.66 33.14 2 26 C1.01 26.33 0.02 26.66 -1 27 C-1 26.34 -1 25.68 -1 25 C-2.98491642 25.26676204 -2.98491642 25.26676204 -5 26 C-5.33 26.99 -5.66 27.98 -6 29 C-9.3 28.67 -12.6 28.34 -16 28 C-16 26.35 -16 24.7 -16 23 C-15.01 23 -14.02 23 -13 23 C-13 22.34 -13 21.68 -13 21 C-13.66 20.67 -14.32 20.34 -15 20 C-12.36 20 -9.72 20 -7 20 C-7 19.34 -7 18.68 -7 18 C-9.31 18.33 -11.62 18.66 -14 19 C-16.3939124 14.2121752 -16.08851581 9.22243256 -16 4 C-14.72942818 3.52014033 -13.45853152 3.0411407 -12.1875 2.5625 C-11.47980469 2.29566406 -10.77210937 2.02882813 -10.04296875 1.75390625 C-6.48700101 0.44166577 -3.78403834 -0.10227131 0 0 Z " fill="#EFDCC9" transform="translate(108,117)"/>
<path d="M0 0 C0 9.24 0 18.48 0 28 C-0.66 28 -1.32 28 -2 28 C-2 29.98 -2 31.96 -2 34 C-5.92857754 35.85131483 -8.98775112 36.22004943 -13.3125 36.125 C-14.38113281 36.10695312 -15.44976562 36.08890625 -16.55078125 36.0703125 C-17.76314453 36.03550781 -17.76314453 36.03550781 -19 36 C-18.34 35.34 -17.68 34.68 -17 34 C-18.32 33.34 -19.64 32.68 -21 32 C-21 31.34 -21 30.68 -21 30 C-18.89748139 29.32815382 -16.79292237 28.66269032 -14.6875 28 C-13.51574219 27.62875 -12.34398438 27.2575 -11.13671875 26.875 C-8 26 -8 26 -5 26 C-4.957279 27.66611905 -4.95936168 29.33382885 -5 31 C-5.33 31.33 -5.66 31.66 -6 32 C-4.515 32.495 -4.515 32.495 -3 33 C-3 26.07 -3 19.14 -3 12 C-5.31 12.66 -7.62 13.32 -10 14 C-14.3597733 14.5831112 -17.78180148 14.822284 -21.5 12.3125 C-23.12258807 9.81101006 -23.49870925 7.90652233 -24 5 C-23.3709375 4.89042969 -22.741875 4.78085938 -22.09375 4.66796875 C-17.81348503 3.87508834 -13.78769449 3.02607275 -9.75 1.375 C-6 0 -6 0 0 0 Z " fill="#314046" transform="translate(80,81)"/>
<path d="M0 0 C0 1.98 0 3.96 0 6 C-15.90526683 10.73131355 -31.79020358 15.41876591 -48 19 C-48 15.04 -48 11.08 -48 7 C-45.89748139 6.32815382 -43.79292237 5.66269032 -41.6875 5 C-40.51574219 4.62875 -39.34398438 4.2575 -38.13671875 3.875 C-35 3 -35 3 -32 3 C-32 4.98 -32 6.96 -32 9 C-28.70800547 8.06364881 -25.41646767 7.12570137 -22.125 6.1875 C-21.2071875 5.92646484 -20.289375 5.66542969 -19.34375 5.39648438 C-13.84484686 3.82813524 -8.36213521 2.21700464 -2.89404297 0.54418945 C-1 0 -1 0 0 0 Z " fill="#CA392F" transform="translate(140,77)"/>
<path d="M0 0 C0.33 0 0.66 0 1 0 C2.19944734 14.99309175 2.10369435 29.96750982 2 45 C3.32 45.33 4.64 45.66 6 46 C6 45.01 6 44.02 6 43 C6.99 43 7.98 43 9 43 C9 42.34 9 41.68 9 41 C10.98567708 40.51171875 12.97135417 40.0234375 14.95703125 39.53515625 C16.65683202 39.08989295 18.33301954 38.55566015 20 38 C20 47.9 20 57.8 20 68 C18 66 18 66 17.8046875 62.3046875 C17.817991 60.82799892 17.84185165 59.35137642 17.875 57.875 C17.88402344 57.12089844 17.89304687 56.36679688 17.90234375 55.58984375 C17.9259313 53.72642746 17.96180281 51.86317407 18 50 C13.05 51.32 8.1 52.64 3 54 C2.92327525 58.52676016 2.92781108 62.57722069 4 67 C4 67.33 4 67.66 4 68 C6.31 68 8.62 68 11 68 C11 68.66 11 69.32 11 70 C8.03 70.495 8.03 70.495 5 71 C5 71.66 5 72.32 5 73 C4.01 73 3.02 73 2 73 C1.67 74.65 1.34 76.3 1 78 C0.67 78 0.34 78 0 78 C0 52.26 0 26.52 0 0 Z " fill="#FADFC9" transform="translate(90,67)"/>
<path d="M0 0 C0 1.98 0 3.96 0 6 C-7.36224072 8.29189755 -14.73705395 10.54240853 -22.125 12.75 C-23.22606079 13.08390747 -23.22606079 13.08390747 -24.34936523 13.42456055 C-27.33408071 14.31076203 -29.86853055 15 -33 15 C-33.33 16.32 -33.66 17.64 -34 19 C-35.9363704 19.50435694 -37.87414146 20.00333874 -39.8125 20.5 C-40.89144531 20.7784375 -41.97039062 21.056875 -43.08203125 21.34375 C-46 22 -46 22 -49 22 C-49 19.36 -49 16.72 -49 14 C-40.68515831 10.81059953 -32.26245173 8.26526211 -23.6875 5.875 C-21.23274042 5.18607947 -18.77830135 4.49601568 -16.32421875 3.8046875 C-15.25260498 3.50546387 -14.18099121 3.20624023 -13.0769043 2.89794922 C-10.98452069 2.28731787 -8.90958523 1.61421171 -6.85473633 0.88720703 C-4 0 -4 0 0 0 Z " fill="#BC4C42" transform="translate(141,88)"/>
<path d="M0 0 C0 0.66 0 1.32 0 2 C7.92 1.505 7.92 1.505 16 1 C16 2.65 16 4.3 16 6 C15.02160156 6.25394531 14.04320313 6.50789063 13.03515625 6.76953125 C11.71086637 7.11691646 10.38665267 7.46459215 9.0625 7.8125 C8.37752441 7.99047119 7.69254883 8.16844238 6.98681641 8.35180664 C3.18434791 9.35649474 -0.45685019 10.50511552 -4.125 11.9375 C-7.14254631 12.9735431 -7.67169596 13.11673032 -10.8125 12 C-13.19673575 9.82012732 -15.16016614 7.65753779 -17 5 C-17 4.34 -17 3.68 -17 3 C-14.92085336 2.29994051 -12.83648414 1.61537756 -10.75 0.9375 C-9.58984375 0.55464844 -8.4296875 0.17179687 -7.234375 -0.22265625 C-4.19922915 -0.95211763 -2.84296787 -1.11889082 0 0 Z " fill="#B64C3B" transform="translate(59,96)"/>
<path d="M0 0 C0 0.33 0 0.66 0 1 C-1.76949612 1.50471197 -3.54065223 2.00360685 -5.3125 2.5 C-6.79169922 2.91765625 -6.79169922 2.91765625 -8.30078125 3.34375 C-11 4 -11 4 -14 4 C-14 10.93 -14 17.86 -14 25 C-12.01355469 24.41089844 -10.02710937 23.82179688 -7.98046875 23.21484375 C-6.05446158 22.6516431 -4.12843616 22.08850285 -2.2019043 21.52709961 C-0.86342911 21.1353389 0.47414931 20.74050069 1.81079102 20.3425293 C3.73215011 19.77104447 5.65705593 19.21152681 7.58203125 18.65234375 C8.73936768 18.31195068 9.8967041 17.97155762 11.08911133 17.62084961 C14 17 14 17 17 18 C16.505 18.495 16.505 18.495 16 19 C15.95907063 21.33297433 15.95758277 23.66705225 16 26 C15.67 26 15.34 26 15 26 C14.67 24.35 14.34 22.7 14 21 C9.85266922 22.14046043 5.70740608 23.28826126 1.5625 24.4375 C0.37849609 24.76298828 -0.80550781 25.08847656 -2.02539062 25.42382812 C-3.15009766 25.73642578 -4.27480469 26.04902344 -5.43359375 26.37109375 C-6.99678345 26.8031311 -6.99678345 26.8031311 -8.59155273 27.24389648 C-10.92738407 27.77310192 -10.92738407 27.77310192 -12 29 C-13.66617115 29.04063832 -15.33388095 29.042721 -17 29 C-17 27.02 -17 25.04 -17 23 C-17.90363281 23.28875 -18.80726562 23.5775 -19.73828125 23.875 C-20.91777344 24.24625 -22.09726563 24.6175 -23.3125 25 C-25.07013672 25.556875 -25.07013672 25.556875 -26.86328125 26.125 C-30 27 -30 27 -33 27 C-33 26.34 -33 25.68 -33 25 C-27.85004004 22.63960168 -23.72873352 21.43218338 -18 20 C-17.505 11.09 -17.505 11.09 -17 2 C-10.63497506 -0.48633787 -6.703436 -1.3406872 0 0 Z " fill="#F5CFC0" transform="translate(125,57)"/>
<path d="M0 0 C0.125 3.375 0.125 3.375 0 7 C-2.40118527 9.40118527 -4.05496042 9.75220861 -7.3125 10.625 C-8.25738281 10.88539062 -9.20226562 11.14578125 -10.17578125 11.4140625 C-12.8893572 11.97704506 -15.24106762 12.06502534 -18 12 C-19.67343448 12.29749946 -21.34305915 12.62127066 -23 13 C-23 10.36 -23 7.72 -23 5 C-7.25512528 -0.74031891 -7.25512528 -0.74031891 0 0 Z " fill="#232E34" transform="translate(134,100)"/>
<path d="M0 0 C0 5.61 0 11.22 0 17 C-6.61396956 19.38536607 -13.0594379 20.89729387 -20 22 C-16.79677758 19.28659072 -13.73725031 18.06935064 -9.75 16.8125 C-8.67234375 16.46832031 -7.5946875 16.12414062 -6.484375 15.76953125 C-5.66453125 15.51558594 -4.8446875 15.26164062 -4 15 C-3.34 11.37 -2.68 7.74 -2 4 C-3.65 4.33 -5.3 4.66 -7 5 C-7 5.33 -7 5.66 -7 6 C-7.79664063 6.19335938 -8.59328125 6.38671875 -9.4140625 6.5859375 C-15.94122006 8.15937582 -15.94122006 8.15937582 -22.3125 10.25 C-25.79148917 11.2208807 -28.49470237 10.70105953 -32 10 C-29.2247298 8.14981987 -27.43890839 7.42603955 -24.2890625 6.5625 C-23.37382812 6.30726562 -22.45859375 6.05203125 -21.515625 5.7890625 C-20.56171875 5.52867188 -19.6078125 5.26828125 -18.625 5 C-16.74150149 4.481653 -14.85866488 3.96089364 -12.9765625 3.4375 C-12.14205566 3.20933594 -11.30754883 2.98117188 -10.44775391 2.74609375 C-7.94094731 2.02556212 -7.94094731 2.02556212 -5.37646484 0.91015625 C-3 0 -3 0 0 0 Z " fill="#B74E3C" transform="translate(167,25)"/>
<path d="M0 0 C-2.63904371 1.41377341 -5.07120629 2.37240135 -8 3 C-8.33 4.32 -8.66 5.64 -9 7 C-10.9363704 7.50435694 -12.87414146 8.00333874 -14.8125 8.5 C-15.89144531 8.7784375 -16.97039062 9.056875 -18.08203125 9.34375 C-21 10 -21 10 -24 10 C-24 7.36 -24 4.72 -24 2 C-17.29097734 -1.6739886 -6.64598767 -4.43065845 0 0 Z " fill="#BA4C38" transform="translate(116,100)"/>
<path d="M0 0 C0.33 0 0.66 0 1 0 C1.70293264 9.32842094 2.0838309 18.60442607 2.02734375 27.9609375 C2.02183502 28.89335266 2.01632629 29.82576782 2.01065063 30.78643799 C1.98303612 34.63637209 1.94754061 38.48614981 1.90405273 42.3359375 C1.87400632 45.19011038 1.85616123 48.04415802 1.83984375 50.8984375 C1.82638412 51.77019623 1.8129245 52.64195496 1.79905701 53.54013062 C1.79567825 54.3459256 1.7922995 55.15172058 1.78881836 55.98193359 C1.78136093 56.68788666 1.7739035 57.39383972 1.76622009 58.1211853 C1.89916464 60.33377263 1.89916464 60.33377263 4 63 C4.125 65.6875 4.125 65.6875 4 68 C6.31 68 8.62 68 11 68 C11 68.66 11 69.32 11 70 C8.03 70.495 8.03 70.495 5 71 C5 71.66 5 72.32 5 73 C4.01 73 3.02 73 2 73 C1.67 74.65 1.34 76.3 1 78 C0.67 78 0.34 78 0 78 C0 52.26 0 26.52 0 0 Z " fill="#F6E5D7" transform="translate(90,67)"/>
<path d="M0 0 C0.33 0 0.66 0 1 0 C1 7.26 1 14.52 1 22 C-3.57253969 23.82901588 -5.60161793 24.22853587 -10.3125 24.125 C-11.38113281 24.10695313 -12.44976562 24.08890625 -13.55078125 24.0703125 C-14.35902344 24.04710938 -15.16726562 24.02390625 -16 24 C-15.34 23.34 -14.68 22.68 -14 22 C-15.32 21.34 -16.64 20.68 -18 20 C-18 19.34 -18 18.68 -18 18 C-15.89748139 17.32815382 -13.79292237 16.66269032 -11.6875 16 C-10.51574219 15.62875 -9.34398438 15.2575 -8.13671875 14.875 C-5 14 -5 14 -2 14 C-1.957279 15.66611905 -1.95936168 17.33382885 -2 19 C-2.33 19.33 -2.66 19.66 -3 20 C-2.01 20.33 -1.02 20.66 0 21 C0 14.07 0 7.14 0 0 Z " fill="#B07B72" transform="translate(77,93)"/>
<path d="M0 0 C0 6.93 0 13.86 0 21 C-2.64 21 -5.28 21 -8 21 C-8 20.67 -8 20.34 -8 20 C-6.35 19.67 -4.7 19.34 -3 19 C-2.67 17.35 -2.34 15.7 -2 14 C-4.31 14 -6.62 14 -9 14 C-9.33 13.34 -9.66 12.68 -10 12 C-8.02 11.67 -6.04 11.34 -4 11 C-4 10.34 -4 9.68 -4 9 C-3.34 9 -2.68 9 -2 9 C-2 7.35 -2 5.7 -2 4 C-2.53109375 4.16371094 -3.0621875 4.32742187 -3.609375 4.49609375 C-6.53876764 5.11356377 -9.25822936 5.09501925 -12.25 5.0625 C-13.32765625 5.05347656 -14.4053125 5.04445313 -15.515625 5.03515625 C-16.33546875 5.02355469 -17.1553125 5.01195313 -18 5 C-18.33 4.01 -18.66 3.02 -19 2 C-18.05125 2.04125 -17.1025 2.0825 -16.125 2.125 C-11.99964252 2.14187263 -8.15218418 1.32299314 -4.13671875 0.4375 C-2 0 -2 0 0 0 Z " fill="#F4DACC" transform="translate(77,93)"/>
<path d="M0 0 C0.33 0 0.66 0 1 0 C1 6.93 1 13.86 1 21 C-1.4440625 21.6496875 -1.4440625 21.6496875 -3.9375 22.3125 C-8.186736 23.47089045 -12.35821417 24.7530373 -16.52734375 26.16796875 C-19.65632458 27.22084855 -22.79264139 28.24544034 -25.9375 29.25 C-27.59072266 29.78367187 -27.59072266 29.78367187 -29.27734375 30.328125 C-32 31 -32 31 -34 30 C-34 29.34 -34 28.68 -34 28 C-33.3294458 27.79842285 -32.6588916 27.5968457 -31.96801758 27.38916016 C-28.91547309 26.47009747 -25.86398208 25.54758367 -22.8125 24.625 C-21.75740234 24.30789062 -20.70230469 23.99078125 -19.61523438 23.6640625 C-18.59365234 23.3546875 -17.57207031 23.0453125 -16.51953125 22.7265625 C-15.58214111 22.44377441 -14.64475098 22.16098633 -13.67895508 21.86962891 C-10.99187974 21.04590505 -10.99187974 21.04590505 -8.4675293 19.89208984 C-6 19 -6 19 -1 19 C-0.67 12.73 -0.34 6.46 0 0 Z " fill="#E4C2B3" transform="translate(142,75)"/>
<path d="M0 0 C0 1.98 0 3.96 0 6 C-17.85649203 11.37129841 -17.85649203 11.37129841 -26 13 C-26 12.34 -26 11.68 -26 11 C-23.36 10.34 -20.72 9.68 -18 9 C-20.64 8.67 -23.28 8.34 -26 8 C-23.07719053 6.43413384 -20.2390989 5.39314864 -17.05078125 4.4921875 C-16.12072266 4.22792969 -15.19066406 3.96367188 -14.23242188 3.69140625 C-13.26884766 3.42199219 -12.30527344 3.15257813 -11.3125 2.875 C-10.33732422 2.59785156 -9.36214844 2.32070312 -8.35742188 2.03515625 C-1.1541718 0 -1.1541718 0 0 0 Z " fill="#B65545" transform="translate(140,77)"/>
<path d="M0 0 C0 0.99 0 1.98 0 3 C-0.53778076 3.15033691 -1.07556152 3.30067383 -1.62963867 3.45556641 C-11.57727603 6.26378666 -21.12751494 9.11129586 -30.37109375 13.80078125 C-32.93962134 14.97245728 -35.21965886 15.57109075 -38 16 C-37.34 15.01 -36.68 14.02 -36 13 C-35.34 13 -34.68 13 -34 13 C-34 12.34 -34 11.68 -34 11 C-26.40177173 7.49590424 -18.84483282 4.47809761 -10.8125 2.125 C-10.08232666 1.91012939 -9.35215332 1.69525879 -8.59985352 1.47387695 C-5.64066268 0.63310697 -3.09160345 0 0 0 Z " fill="#EBCFC8" transform="translate(81,48)"/>
<path d="M0 0 C-3.16789693 1.75994274 -5.24364431 2.24872886 -9 3 C-9 8.94 -9 14.88 -9 21 C-14.32084753 22.80090224 -19.59030173 24.45437192 -25 26 C-25 20.06 -25 14.12 -25 8 C-24.01 8.495 -24.01 8.495 -23 9 C-23 13.62 -23 18.24 -23 23 C-21.35 22.34 -19.7 21.68 -18 21 C-15.6679198 20.92353835 -13.33154122 20.90856701 -11 21 C-11.05800781 19.74703125 -11.11601563 18.4940625 -11.17578125 17.203125 C-11.22268478 15.5521206 -11.26818431 13.90107589 -11.3125 12.25 C-11.35439453 11.425 -11.39628906 10.6 -11.43945312 9.75 C-11.56281471 3.63126515 -11.56281471 3.63126515 -8.6875 0.40625 C-5.3240301 -1.35370518 -3.59368498 -1.00288883 0 0 Z " fill="#B75340" transform="translate(117,56)"/>
<path d="M0 0 C0 1.98 0 3.96 0 6 C-5.33835539 7.92471317 -10.34979382 9.39891424 -16 10 C-16 8.02 -16 6.04 -16 4 C-14.72942818 3.52014033 -13.45853152 3.0411407 -12.1875 2.5625 C-11.47980469 2.29566406 -10.77210937 2.02882813 -10.04296875 1.75390625 C-6.48700101 0.44166577 -3.78403834 -0.10227131 0 0 Z " fill="#C13D39" transform="translate(108,117)"/>
<path d="M0 0 C0 1.98 0 3.96 0 6 C0.66 6 1.32 6 2 6 C1.67 6.99 1.34 7.98 1 9 C-0.5 7.6875 -0.5 7.6875 -2 6 C-2 5.01 -2 4.02 -2 3 C-5.3 3.66 -8.6 4.32 -12 5 C-12.33 7.31 -12.66 9.62 -13 12 C-6.565 11.505 -6.565 11.505 0 11 C-3.30998105 13.20665404 -5.82021436 13.78262095 -9.6875 14.625 C-11.45673828 15.01558594 -11.45673828 15.01558594 -13.26171875 15.4140625 C-14.61716797 15.70410156 -14.61716797 15.70410156 -16 16 C-16 12.04 -16 8.08 -16 4 C-13.89748139 3.32815382 -11.79292237 2.66269032 -9.6875 2 C-8.51574219 1.62875 -7.34398438 1.2575 -6.13671875 0.875 C-3 0 -3 0 0 0 Z " fill="#B84D3F" transform="translate(108,80)"/>
<path d="M0 0 C0 0.66 0 1.32 0 2 C-8.8846479 5.84345935 -8.8846479 5.84345935 -13.5625 6.5 C-17.98199908 7.14283623 -23.73205782 8.73205782 -27 12 C-28.85287502 12.07226502 -30.70833878 12.0838122 -32.5625 12.0625 C-33.57441406 12.05347656 -34.58632813 12.04445313 -35.62890625 12.03515625 C-36.41136719 12.02355469 -37.19382813 12.01195312 -38 12 C-35.84026805 9.84026805 -34.78859867 9.4693052 -31.921875 8.6328125 C-31.09671387 8.38869629 -30.27155273 8.14458008 -29.42138672 7.89306641 C-28.5398291 7.63960449 -27.65827148 7.38614258 -26.75 7.125 C-25.8542627 6.86251465 -24.95852539 6.6000293 -24.03564453 6.32958984 C-21.35879757 5.54706798 -18.67949963 4.77338032 -16 4 C-14.54409499 3.57351648 -13.0883493 3.14648847 -11.6328125 2.71875 C-2.29196429 0 -2.29196429 0 0 0 Z " fill="#BC4F43" transform="translate(97,46)"/>
<path d="M0 0 C1.125 3.75 1.125 3.75 0 6 C0.66 6 1.32 6 2 6 C2 9.3 2 12.6 2 16 C5.69418201 17.231394 8.2056261 16.64432764 12 16 C12.84611197 13.3559001 12.98877428 11.38258533 12.9375 8.5625 C12.99795458 5.11658917 13.51465904 3.06351572 15 0 C15.66 0.66 16.32 1.32 17 2 C16.67 2.66 16.34 3.32 16 4 C15.90414869 5.64356807 15.87016489 7.29114642 15.875 8.9375 C15.87242188 9.81277344 15.86984375 10.68804687 15.8671875 11.58984375 C15.90177997 14.14459056 15.90177997 14.14459056 17 17 C15.25183142 17.50636607 13.50137737 18.00484619 11.75 18.5 C10.77546875 18.7784375 9.8009375 19.056875 8.796875 19.34375 C6 20 6 20 2 20 C-0.94235671 13.2570992 -2.38661296 7.15983887 0 0 Z " fill="#BB594D" transform="translate(38,77)"/>
<path d="M0 0 C-0.99 0.495 -0.99 0.495 -2 1 C-2 1.66 -2 2.32 -2 3 C-3.83462916 4.98751492 -5.26768872 5.91605918 -7.9765625 6.2265625 C-13.42793594 6.28603203 -13.42793594 6.28603203 -16 5 C-16.6875 2.5 -16.6875 2.5 -17 0 C-13.02053253 -3.97946747 -4.56993303 -1.6529545 0 0 Z " fill="#C73B2A" transform="translate(64,100)"/>
<path d="M0 0 C0.33 0 0.66 0 1 0 C1 3.96 1 7.92 1 12 C2.2375 11.484375 3.475 10.96875 4.75 10.4375 C7.9493138 9.10445258 9.69564916 8.87622303 13 10 C12.030625 10.268125 11.06125 10.53625 10.0625 10.8125 C9.051875 11.204375 8.04125 11.59625 7 12 C6.67 12.99 6.34 13.98 6 15 C6.66 15.33 7.32 15.66 8 16 C5.69 16.66 3.38 17.32 1 18 C1 20.64 1 23.28 1 26 C4.465 25.505 4.465 25.505 8 25 C7.01 25.33 6.02 25.66 5 26 C5 26.99 5 27.98 5 29 C3.35 28.67 1.7 28.34 0 28 C0 18.76 0 9.52 0 0 Z " fill="#F7CAB7" transform="translate(91,84)"/>
<path d="M0 0 C0 0.99 0 1.98 0 3 C-0.99 3.33 -1.98 3.66 -3 4 C-2.34 4.66 -1.68 5.32 -1 6 C-7.435 7.98 -7.435 7.98 -14 10 C-14 9.34 -14 8.68 -14 8 C-14.99 8.33 -15.98 8.66 -17 9 C-17 7.68 -17 6.36 -17 5 C-14.73117913 4.16080602 -12.46022973 3.32848276 -10.1875 2.5 C-9.54490234 2.26152344 -8.90230469 2.02304688 -8.24023438 1.77734375 C-5.35066261 0.72931254 -3.09923939 0 0 0 Z " fill="#EDD4CA" transform="translate(108,160)"/>
<path d="M0 0 C0 17.16 0 34.32 0 52 C-0.66 51.67 -1.32 51.34 -2 51 C-1.99476318 49.89599854 -1.98952637 48.79199707 -1.98413086 47.65454102 C-1.96590543 43.52271346 -1.95450441 39.3908894 -1.94506836 35.2590332 C-1.94006799 33.47745158 -1.93326554 31.69587401 -1.92456055 29.91430664 C-1.91230536 27.3399963 -1.90672858 24.76574064 -1.90234375 22.19140625 C-1.89460182 21.01427818 -1.89460182 21.01427818 -1.88670349 19.81336975 C-1.88607358 13.47423057 -1.98258663 7.0522401 -4 1 C-2 0 -2 0 0 0 Z " fill="#2B2A2A" transform="translate(89,69)"/>
<path d="M0 0 C0 0.66 0 1.32 0 2 C-1.65 2.33 -3.3 2.66 -5 3 C-5 3.66 -5 4.32 -5 5 C-0.71 5.66 3.58 6.32 8 7 C8 7.33 8 7.66 8 8 C-7.92938497 8.738041 -7.92938497 8.738041 -14 4 C-14 3.34 -14 2.68 -14 2 C-12.23225581 1.46877637 -10.46065917 0.95035927 -8.6875 0.4375 C-7.70136719 0.14746094 -6.71523438 -0.14257812 -5.69921875 -0.44140625 C-3 -1 -3 -1 0 0 Z " fill="#E9D3C4" transform="translate(64,108)"/>
<path d="M0 0 C-0.99 0.495 -0.99 0.495 -2 1 C-2 1.66 -2 2.32 -2 3 C-8.05473373 5.57886807 -13.44074057 6.61020794 -20 7 C-19.67 5.68 -19.34 4.36 -19 3 C-12.49577707 0.99134292 -6.8218683 -0.38614349 0 0 Z " fill="#FDDBC4" transform="translate(117,92)"/>
<path d="M0 0 C1.42408608 3.9288616 0.75148095 7.65522801 0.1875 11.6875 C0.10435547 12.37650391 0.02121094 13.06550781 -0.06445312 13.77539062 C-0.3006534 15.52878974 -0.64257951 17.2672422 -1 19 C-1.66 19.33 -2.32 19.66 -3 20 C-3.33 18.68 -3.66 17.36 -4 16 C-4.66 16 -5.32 16 -6 16 C-6.66 16.66 -7.32 17.32 -8 18 C-7.45960463 13.44041411 -6.26620958 10.16970963 -4 6.1875 C-3.46375 5.23230469 -2.9275 4.27710937 -2.375 3.29296875 C-1 1 -1 1 0 0 Z " fill="#213234" transform="translate(35,73)"/>
<path d="M0 0 C0.66 0 1.32 0 2 0 C2 6.27 2 12.54 2 19 C-11.25892857 22.08035714 -11.25892857 22.08035714 -16 23 C-16 22.34 -16 21.68 -16 21 C-11.03906272 18.72623708 -6.32187227 17.21376034 -1 16 C-0.67 10.72 -0.34 5.44 0 0 Z " fill="#FEE0D2" transform="translate(108,61)"/>
<path d="M0 0 C0 0.33 0 0.66 0 1 C-1.76949612 1.50471197 -3.54065223 2.00360685 -5.3125 2.5 C-6.79169922 2.91765625 -6.79169922 2.91765625 -8.30078125 3.34375 C-11 4 -11 4 -14 4 C-14 10.93 -14 17.86 -14 25 C-12.02 24.67 -10.04 24.34 -8 24 C-8 24.66 -8 25.32 -8 26 C-10.31 26 -12.62 26 -15 26 C-15 18.74 -15 11.48 -15 4 C-15.66 4 -16.32 4 -17 4 C-17 3.34 -17 2.68 -17 2 C-10.83354621 -0.52653315 -6.56407612 -1.31281522 0 0 Z " fill="#CFB8A8" transform="translate(125,57)"/>
<path d="M0 0 C0.66 0 1.32 0 2 0 C2 9.9 2 19.8 2 30 C0 28 0 28 -0.22705078 26.12060547 C-0.21657715 25.37697754 -0.20610352 24.63334961 -0.1953125 23.8671875 C-0.18886719 23.06152344 -0.18242188 22.25585938 -0.17578125 21.42578125 C-0.15902344 20.58402344 -0.14226562 19.74226563 -0.125 18.875 C-0.11597656 18.02550781 -0.10695313 17.17601563 -0.09765625 16.30078125 C-0.07405647 14.20040116 -0.03818483 12.10016556 0 10 C-0.99 9.67 -1.98 9.34 -3 9 C-2.34 8.34 -1.68 7.68 -1 7 C-0.59952556 4.67724823 -0.2602896 2.34260643 0 0 Z " fill="#F5E6D8" transform="translate(108,105)"/>
<path d="M0 0 C-0.33 0.66 -0.66 1.32 -1 2 C-3.51963422 2.35672241 -6.01333243 2.44375117 -8.5546875 2.55859375 C-11.45374237 3.08190557 -12.03260111 3.90384464 -14 6 C-17.71217237 7.88416144 -20.67779138 8.22463153 -24.8125 8.125 C-26.27623047 8.09792969 -26.27623047 8.09792969 -27.76953125 8.0703125 C-28.50558594 8.04710937 -29.24164063 8.02390625 -30 8 C-27.13761383 6.47033032 -24.37082619 5.44209592 -21.25 4.5625 C-17.98602779 3.61411869 -14.79824252 2.59319235 -11.625 1.375 C-4.33040422 -1.39191564 -4.33040422 -1.39191564 0 0 Z " fill="#B94E41" transform="translate(135,36)"/>
<path d="M0 0 C0 1.98 0 3.96 0 6 C-4.95 6.33 -9.9 6.66 -15 7 C-11.30735907 3.30735907 -10.4451718 2.48172958 -5.8125 1.25 C-4.93207031 1.00765625 -4.05164063 0.7653125 -3.14453125 0.515625 C-1 0 -1 0 0 0 Z " fill="#B54C39" transform="translate(140,77)"/>
<path d="M0 0 C0.99386719 0.00902344 1.98773438 0.01804687 3.01171875 0.02734375 C4.15060547 0.04474609 4.15060547 0.04474609 5.3125 0.0625 C2.30632731 3.06867269 -0.51131598 2.65835316 -4.6875 3.0625 C-4.6875 3.7225 -4.6875 4.3825 -4.6875 5.0625 C-7.4334726 6.4354863 -9.6464047 6.18662634 -12.6875 6.0625 C-13.6775 5.7325 -14.6675 5.4025 -15.6875 5.0625 C-15.6875 4.4025 -15.6875 3.7425 -15.6875 3.0625 C-14.03135343 2.68031233 -12.36292976 2.34854898 -10.6875 2.0625 C-10.3575 2.3925 -10.0275 2.7225 -9.6875 3.0625 C-9.3575 2.4025 -9.0275 1.7425 -8.6875 1.0625 C-5.53819107 0.01273036 -3.29935544 -0.03881595 0 0 Z " fill="#B73F32" transform="translate(118.6875,84.9375)"/>
<path d="M0 0 C0.33 1.32 0.66 2.64 1 4 C-1.10251861 4.67184618 -3.20707763 5.33730968 -5.3125 6 C-7.07013672 6.556875 -7.07013672 6.556875 -8.86328125 7.125 C-12 8 -12 8 -15 8 C-14.67 6.68 -14.34 5.36 -14 4 C-9.38 2.68 -4.76 1.36 0 0 Z " fill="#AB5947" transform="translate(107,137)"/>
<path d="M0 0 C0 0.66 0 1.32 0 2 C-1.65 2.66 -3.3 3.32 -5 4 C-3.68 4.66 -2.36 5.32 -1 6 C-2.45736087 6.19491452 -3.91594593 6.38069358 -5.375 6.5625 C-6.18710938 6.66691406 -6.99921875 6.77132812 -7.8359375 6.87890625 C-10 7 -10 7 -12 6 C-14.08632385 6.45638334 -16.08602206 7.08922376 -18.125 7.72265625 C-18.74375 7.81417969 -19.3625 7.90570313 -20 8 C-20.66 7.34 -21.32 6.68 -22 6 C-18.7096777 4.99553896 -15.41753178 3.99719244 -12.125 3 C-11.18785156 2.71382813 -10.25070313 2.42765625 -9.28515625 2.1328125 C-8.38925781 1.86210938 -7.49335937 1.59140625 -6.5703125 1.3125 C-5.32918701 0.93544922 -5.32918701 0.93544922 -4.06298828 0.55078125 C-2 0 -2 0 0 0 Z " fill="#F8CBB1" transform="translate(73,102)"/>
<path d="M0 0 C-3.54525953 1.89671385 -7.22302128 3.25664542 -11 4.625 C-12.8253125 5.29402344 -12.8253125 5.29402344 -14.6875 5.9765625 C-18 7 -18 7 -22 7 C-22 5.68 -22 4.36 -22 3 C-19.45953542 2.49311395 -16.91791124 1.99433126 -14.375 1.5 C-13.66214844 1.35691406 -12.94929688 1.21382813 -12.21484375 1.06640625 C-8.07855065 0.26950574 -4.23566321 -0.16034056 0 0 Z " fill="#BA5645" transform="translate(89,64)"/>
<path d="M0 0 C0 0.99 0 1.98 0 3 C1.32 3.33 2.64 3.66 4 4 C0.04 4.99 -3.92 5.98 -8 7 C-8 6.34 -8 5.68 -8 5 C-11.3 5 -14.6 5 -18 5 C-14.72202643 2.81468429 -12.26369694 2.22146592 -8.4375 1.375 C-6.70306641 0.98441406 -6.70306641 0.98441406 -4.93359375 0.5859375 C-2 0 -2 0 0 0 Z " fill="#FACDB1" transform="translate(123,88)"/>
<path d="M0 0 C0.99 0.495 0.99 0.495 2 1 C2.3440312 3.59369608 2.56055903 6.08174806 2.6875 8.6875 C2.73455078 9.39583984 2.78160156 10.10417969 2.83007812 10.83398438 C3.0675076 15.04933061 2.87176849 18.83779704 2 23 C1.34 22.67 0.68 22.34 0 22 C0 14.74 0 7.48 0 0 Z " fill="#34393E" transform="translate(143,74)"/>
<path d="M0 0 C0.99 0 1.98 0 3 0 C3 1.98 3 3.96 3 6 C-2.33835539 7.92471317 -7.34979382 9.39891424 -13 10 C-13 8.02 -13 6.04 -13 4 C-12.34 4 -11.68 4 -11 4 C-11 4.99 -11 5.98 -11 7 C-8.36 7 -5.72 7 -3 7 C-2.67 6.01 -2.34 5.02 -2 4 C-1.34 4 -0.68 4 0 4 C0 2.68 0 1.36 0 0 Z " fill="#B35E4E" transform="translate(105,117)"/>
<path d="M0 0 C-0.56635374 3.87598342 -2.36333367 5.80941703 -5 8.625 C-7.83496105 11.58030757 -7.83496105 11.58030757 -10 15 C-10.66 15 -11.32 15 -12 15 C-11.05923958 9.35543749 -6.66191016 0 0 0 Z " fill="#BB5346" transform="translate(51,62)"/>
<path d="M0 0 C-7.3197277 1.86094772 -14.46783285 2.55761615 -22 3 C-19.4033438 0.4033438 -17.06184625 -0.10687691 -13.5625 -1.1875 C-12.40878906 -1.55230469 -11.25507813 -1.91710938 -10.06640625 -2.29296875 C-5.92996123 -3.24672231 -3.62515671 -1.87508106 0 0 Z " fill="#F7CCBF" transform="translate(159,48)"/>
<path d="M0 0 C0 1.98 0 3.96 0 6 C-4.62 5.34 -9.24 4.68 -14 4 C-9.15584557 1.57792279 -5.44453532 0 0 0 Z " fill="#BA6153" transform="translate(141,88)"/>
<path d="M0 0 C-0.33 0.33 -0.66 0.66 -1 1 C-1.04092937 3.33297433 -1.04241723 5.66705225 -1 8 C-1.33 8 -1.66 8 -2 8 C-2.33 6.35 -2.66 4.7 -3 3 C-4.33804688 3.23396484 -4.33804688 3.23396484 -5.703125 3.47265625 C-6.87359375 3.66730469 -8.0440625 3.86195312 -9.25 4.0625 C-10.99023438 4.35833984 -10.99023438 4.35833984 -12.765625 4.66015625 C-15.70676936 4.96918953 -17.24554447 4.79858264 -20 4 C-17.23208055 3.13521219 -14.46134374 2.28288326 -11.6875 1.4375 C-10.90181641 1.19064453 -10.11613281 0.94378906 -9.30664062 0.68945312 C-8.54931641 0.46064453 -7.79199219 0.23183594 -7.01171875 -0.00390625 C-5.96697388 -0.32597046 -5.96697388 -0.32597046 -4.90112305 -0.65454102 C-3 -1 -3 -1 0 0 Z " fill="#D4C4B8" transform="translate(142,75)"/>
<path d="M0 0 C-0.66 0 -1.32 0 -2 0 C-2.33 0.99 -2.66 1.98 -3 3 C-7.38185524 4.63245587 -11.33054928 5.43436751 -16 5 C-16.66 4.34 -17.32 3.68 -18 3 C-15.75376301 2.30030318 -13.50283586 1.61564957 -11.25 0.9375 C-9.99703125 0.55464844 -8.7440625 0.17179687 -7.453125 -0.22265625 C-4.3261992 -0.92656828 -2.90533954 -1.16653785 0 0 Z " fill="#393B3A" transform="translate(87,70)"/>
<path d="M0 0 C0 5.61 0 11.22 0 17 C-0.33 17 -0.66 17 -1 17 C-1.33 12.71 -1.66 8.42 -2 4 C-4.31 4.33 -6.62 4.66 -9 5 C-9 4.01 -9 3.02 -9 2 C-3.375 0 -3.375 0 0 0 Z " fill="#F8C7B7" transform="translate(92,64)"/>
<path d="M0 0 C0.66 0 1.32 0 2 0 C2 4.62 2 9.24 2 14 C-0.97 14 -3.94 14 -7 14 C-6 11 -6 11 -2.9375 9.3125 C-1.968125 8.879375 -0.99875 8.44625 0 8 C0 5.36 0 2.72 0 0 Z " fill="#FBE5D5" transform="translate(140,75)"/>
<path d="M0 0 C-4.04737798 4.04737798 -10.37291978 6.27392513 -16 7 C-15.34 6.01 -14.68 5.02 -14 4 C-13.34 4 -12.68 4 -12 4 C-12 3.34 -12 2.68 -12 2 C-7.52828892 -0.66173278 -5.06604612 -1.3268216 0 0 Z " fill="#EAC8BB" transform="translate(59,57)"/>
<path d="M0 0 C0 0.99 0 1.98 0 3 C-2.10251861 3.67184618 -4.20707763 4.33730968 -6.3125 5 C-8.07013672 5.556875 -8.07013672 5.556875 -9.86328125 6.125 C-13 7 -13 7 -16 7 C-15.67 6.01 -15.34 5.02 -15 4 C-12.3828125 2.83203125 -12.3828125 2.83203125 -9.125 1.8125 C-8.05507812 1.46832031 -6.98515625 1.12414062 -5.8828125 0.76953125 C-3 0 -3 0 0 0 Z " fill="#A86B60" transform="translate(108,160)"/>
<path d="M0 0 C0.66 0.66 1.32 1.32 2 2 C-0.09838044 2.58371496 -2.20402517 3.14137045 -4.3125 3.6875 C-6.07013672 4.15736328 -6.07013672 4.15736328 -7.86328125 4.63671875 C-11 5 -11 5 -12.91796875 3.58203125 C-13.27503906 3.05996094 -13.63210937 2.53789062 -14 2 C-12.42085985 1.46658816 -10.83645613 0.94874237 -9.25 0.4375 C-8.36828125 0.14746094 -7.4865625 -0.14257812 -6.578125 -0.44140625 C-3.87836841 -1.02635351 -2.54246395 -1.01145848 0 0 Z " fill="#E4C9BD" transform="translate(157,26)"/>
<path d="M0 0 C0 0.99 0 1.98 0 3 C-5.07476794 4.26305335 -9.72796354 5.27036084 -15 5 C-14.01 4.67 -13.02 4.34 -12 4 C-12 3.34 -12 2.68 -12 2 C-10.7625 1.67 -9.525 1.34 -8.25 1 C-7.55390625 0.814375 -6.8578125 0.62875 -6.140625 0.4375 C-4 0 -4 0 0 0 Z " fill="#F1D9CD" transform="translate(169,22)"/>
<path d="M0 0 C0 0.66 0 1.32 0 2 C-4.84241633 3.33583899 -8.93437617 4.25328119 -14 4 C-14 3.34 -14 2.68 -14 2 C-12.23225581 1.46877637 -10.46065917 0.95035927 -8.6875 0.4375 C-7.70136719 0.14746094 -6.71523438 -0.14257812 -5.69921875 -0.44140625 C-3 -1 -3 -1 0 0 Z " fill="#F8E4C7" transform="translate(64,108)"/>
<path d="M0 0 C1.921875 0.7109375 1.921875 0.7109375 4 2 C4.828125 4.1640625 4.828125 4.1640625 5.25 6.625 C5.39953125 7.44226563 5.5490625 8.25953125 5.703125 9.1015625 C5.80109375 9.72804688 5.8990625 10.35453125 6 11 C4.02 11 2.04 11 0 11 C0 10.01 0 9.02 0 8 C0.66 8 1.32 8 2 8 C2 6.02 2 4.04 2 2 C1.34 2 0.68 2 0 2 C0 1.34 0 0.68 0 0 Z " fill="#242B33" transform="translate(35,98)"/>
<path d="M0 0 C0.33 0.99 0.66 1.98 1 3 C-1.10251861 3.67184618 -3.20707763 4.33730968 -5.3125 5 C-7.07013672 5.556875 -7.07013672 5.556875 -8.86328125 6.125 C-12 7 -12 7 -15 7 C-15 6.34 -15 5.68 -15 5 C-10.03906272 2.72623708 -5.32187227 1.21376034 0 0 Z " fill="#FCC3A6" transform="translate(107,77)"/>
<path d="M0 0 C-0.99 0 -1.98 0 -3 0 C-1.92598892 2.91517292 -1.22189824 4.77810176 1 7 C-1.31 7.33 -3.62 7.66 -6 8 C-6 5.36 -6 2.72 -6 0 C-3.50907189 -1.24546405 -2.58919267 -0.7767578 0 0 Z " fill="#B15442" transform="translate(98,102)"/>
<path d="M0 0 C0 1.65 0 3.3 0 5 C-1.98 5.33 -3.96 5.66 -6 6 C-6 5.01 -6 4.02 -6 3 C-8.31 2.67 -10.62 2.34 -13 2 C-13 1.67 -13 1.34 -13 1 C-11.58366664 0.83052421 -10.16691467 0.66454493 -8.75 0.5 C-7.56664063 0.36078125 -7.56664063 0.36078125 -6.359375 0.21875 C-4 0 -4 0 0 0 Z " fill="#B76451" transform="translate(75,97)"/>
<path d="M0 0 C0 1.98 0 3.96 0 6 C0.66 6 1.32 6 2 6 C1.67 6.99 1.34 7.98 1 9 C-0.5 7.6875 -0.5 7.6875 -2 6 C-2 5.01 -2 4.02 -2 3 C-4.97 3 -7.94 3 -11 3 C-7.25593545 0.50395696 -4.45848315 0 0 0 Z " fill="#C25E50" transform="translate(108,80)"/>
<path d="M0 0 C0 5.61 0 11.22 0 17 C-0.33 17 -0.66 17 -1 17 C-1.33 12.71 -1.66 8.42 -2 4 C-3.65 4 -5.3 4 -7 4 C-7 3.01 -7 2.02 -7 1 C-4.50935112 0.31292445 -2.62113708 0 0 0 Z " fill="#B0564B" transform="translate(167,25)"/>
<path d="M0 0 C-0.928125 0.433125 -1.85625 0.86625 -2.8125 1.3125 C-5.94274244 2.74574242 -5.94274244 2.74574242 -7.625 4.75 C-8.07875 5.1625 -8.5325 5.575 -9 6 C-10.8125 5.6875 -10.8125 5.6875 -13 5 C-14.99963028 4.96154557 -17.00051633 4.95455719 -19 5 C-19 4.67 -19 4.34 -19 4 C-16.21079611 3.1369594 -13.41913928 2.28427693 -10.625 1.4375 C-9.8309375 1.19064453 -9.036875 0.94378906 -8.21875 0.68945312 C-7.45820312 0.46064453 -6.69765625 0.23183594 -5.9140625 -0.00390625 C-5.2123291 -0.21861572 -4.5105957 -0.4333252 -3.78759766 -0.65454102 C-2 -1 -2 -1 0 0 Z " fill="#4B4949" transform="translate(109,166)"/>
<path d="M0 0 C-0.54269531 0.26554687 -1.08539063 0.53109375 -1.64453125 0.8046875 C-2.71767578 1.33449219 -2.71767578 1.33449219 -3.8125 1.875 C-4.52019531 2.22304687 -5.22789063 2.57109375 -5.95703125 2.9296875 C-8.21246418 4.0656486 -8.21246418 4.0656486 -11 6 C-11.66 5.67 -12.32 5.34 -13 5 C-13 4.34 -13 3.68 -13 3 C-12.34 3 -11.68 3 -11 3 C-10.67 2.01 -10.34 1.02 -10 0 C-6.26432828 -0.76411467 -3.65188082 -1.07174763 0 0 Z " fill="#B64937" transform="translate(65,72)"/>
<path d="M0 0 C4.62 0 9.24 0 14 0 C10.83433427 2.11044382 8.48802585 2.75552077 4.8125 3.625 C3.72582031 3.88539063 2.63914062 4.14578125 1.51953125 4.4140625 C0.68808594 4.60742188 -0.14335938 4.80078125 -1 5 C-1 4.34 -1 3.68 -1 3 C-0.01 3 0.98 3 2 3 C2 2.34 2 1.68 2 1 C1.34 0.67 0.68 0.34 0 0 Z " fill="#F5C9B9" transform="translate(93,137)"/>
<path d="M0 0 C0.33 0 0.66 0 1 0 C1 6.93 1 13.86 1 21 C-0.32 21 -1.64 21 -3 21 C-3 20.34 -3 19.68 -3 19 C-2.34 19 -1.68 19 -1 19 C-0.67 12.73 -0.34 6.46 0 0 Z " fill="#DDC9C3" transform="translate(142,75)"/>
<path d="M0 0 C-2.77753377 1.44558008 -5.54539908 2.65035413 -8.5 3.6875 C-9.2528125 3.95949219 -10.005625 4.23148438 -10.78125 4.51171875 C-13.23597493 5.0519311 -14.64423338 4.79774824 -17 4 C-16 2 -16 2 -14.1796875 1.3671875 C-9.33738332 0.3330683 -4.95047466 -0.2106585 0 0 Z " fill="#474B47" transform="translate(82,47)"/>
<path d="M0 0 C-2.4453385 2.96527758 -4.44602347 3.55582214 -8.1875 4.1875 C-9.08855469 4.34605469 -9.98960938 4.50460938 -10.91796875 4.66796875 C-11.94857422 4.83232422 -11.94857422 4.83232422 -13 5 C-12.67 4.01 -12.34 3.02 -12 2 C-7.92532275 0.51117562 -4.33458585 -0.26270217 0 0 Z " fill="#EFD0CB" transform="translate(94,45)"/>
<path d="M0 0 C1.8871875 0.0309375 1.8871875 0.0309375 3.8125 0.0625 C3.8125 0.7225 3.8125 1.3825 3.8125 2.0625 C-0.45366316 3.20014351 -3.75236311 4.0625 -8.1875 4.0625 C-7.8575 3.0725 -7.5275 2.0825 -7.1875 1.0625 C-4.43671116 0.14557039 -2.82801087 -0.04636083 0 0 Z " fill="#E7D6CC" transform="translate(127.1875,33.9375)"/>
<path d="M0 0 C-3.60051153 2.40034102 -6.96144535 4.32187705 -11.375 3.625 C-11.91125 3.41875 -12.4475 3.2125 -13 3 C-8.37457597 -0.66843975 -5.79791523 -1.15958305 0 0 Z " fill="#F9D7C3" transform="translate(105,160)"/>
<path d="M0 0 C0.33 0 0.66 0 1 0 C1.33 2.64 1.66 5.28 2 8 C5.49234244 8.09978121 8.59437148 7.77842938 12 7 C11 9 11 9 7.6875 10.125 C4 11 4 11 0 11 C0 7.37 0 3.74 0 0 Z " fill="#3D4541" transform="translate(111,71)"/>
<path d="M0 0 C-3.79541663 2.21399303 -7.75629421 3.00980198 -12 4 C-12.33 3.01 -12.66 2.02 -13 1 C-8.31506124 -1.48887372 -5.0555786 -0.85687773 0 0 Z " fill="#E6C5B8" transform="translate(105,43)"/>
<path d="M0 0 C-4.62 1.32 -9.24 2.64 -14 4 C-14.33 3.01 -14.66 2.02 -15 1 C-13.25559202 0.44058641 -11.50414743 -0.09691897 -9.75 -0.625 C-8.77546875 -0.92664063 -7.8009375 -1.22828125 -6.796875 -1.5390625 C-4 -2 -4 -2 0 0 Z " fill="#F7B69E" transform="translate(55,96)"/>
<path d="M0 0 C-4.60966042 2.48212484 -8.72927515 4 -14 4 C-14.33 3.01 -14.66 2.02 -15 1 C-9.91913204 0.15318867 -5.15171623 -0.09038099 0 0 Z " fill="#B94E42" transform="translate(147,47)"/>
<path d="M0 0 C0 0.66 0 1.32 0 2 C-4.77830905 4.91360308 -7.55106131 5.19876651 -13 4 C-10.34531286 2.23020858 -8.92500069 1.57859829 -5.9375 0.875 C-5.24527344 0.70742188 -4.55304688 0.53984375 -3.83984375 0.3671875 C-2 0 -2 0 0 0 Z " fill="#BA5849" transform="translate(97,46)"/>
<path d="M0 0 C2.31 0 4.62 0 7 0 C7 0.99 7 1.98 7 3 C4.29120665 4.35439668 1.99066732 4.06501451 -1 4 C-0.67 2.68 -0.34 1.36 0 0 Z " fill="#CC382C" transform="translate(98,101)"/>
<path d="M0 0 C-0.33 0.66 -0.66 1.32 -1 2 C-3.94140625 2.4140625 -3.94140625 2.4140625 -7.5625 2.625 C-8.76003906 2.69976562 -9.95757812 2.77453125 -11.19140625 2.8515625 C-12.11824219 2.90054688 -13.04507813 2.94953125 -14 3 C-8.63430379 -1.11370042 -6.60960038 -0.95945812 0 0 Z " fill="#BF4339" transform="translate(128,94)"/>
<path d="M0 0 C1.125 3.75 1.125 3.75 0 6 C0.66 6 1.32 6 2 6 C2 8.31 2 10.62 2 13 C1.01 13.495 1.01 13.495 0 14 C-1.17635297 11.64729407 -1.13359359 10.179248 -1.125 7.5625 C-1.12757812 6.78003906 -1.13015625 5.99757813 -1.1328125 5.19140625 C-1 3 -1 3 0 0 Z " fill="#C56259" transform="translate(38,77)"/>
<path d="M0 0 C0.66 0.33 1.32 0.66 2 1 C1.07347299 2.17539996 0.13336613 3.34010577 -0.8125 4.5 C-1.33457031 5.1496875 -1.85664062 5.799375 -2.39453125 6.46875 C-4 8 -4 8 -7 8 C-6.01347016 4.68167234 -5.31268497 3.23451373 -2.5 1.125 C-1.675 0.75375 -0.85 0.3825 0 0 Z " fill="#F2C4B8" transform="translate(61,73)"/>
<path d="M0 0 C0.33 0 0.66 0 1 0 C1 5.94 1 11.88 1 18 C0.67 18 0.34 18 0 18 C0 16.35 0 14.7 0 13 C-0.66 13 -1.32 13 -2 13 C-2 11.68 -2 10.36 -2 9 C-1.34 9 -0.68 9 0 9 C0 6.03 0 3.06 0 0 Z " fill="#26363E" transform="translate(80,100)"/>
<path d="M0 0 C-0.639375 0.103125 -1.27875 0.20625 -1.9375 0.3125 C-2.618125 0.539375 -3.29875 0.76625 -4 1 C-4.33 1.99 -4.66 2.98 -5 4 C-8.3 4 -11.6 4 -15 4 C-12.08113721 2.54056861 -9.43322662 1.36088872 -6.375 0.3125 C-5.59898438 0.04050781 -4.82296875 -0.23148437 -4.0234375 -0.51171875 C-2 -1 -2 -1 0 0 Z " fill="#BD624F" transform="translate(118,95)"/>
<path d="M0 0 C1.73684533 3.47369066 2.30084112 5.07619937 2.625 8.75 C2.69976562 9.54921875 2.77453125 10.3484375 2.8515625 11.171875 C2.90054688 11.77515625 2.94953125 12.3784375 3 13 C2.01 12.67 1.02 12.34 0 12 C0 8.04 0 4.08 0 0 Z " fill="#F4D8CA" transform="translate(35,81)"/>
<path d="M0 0 C0.33 0 0.66 0 1 0 C1.144375 1.0725 1.28875 2.145 1.4375 3.25 C1.83749442 5.91662949 2.27591924 8.41399729 3 11 C2.34 10.67 1.68 10.34 1 10 C1 9.34 1 8.68 1 8 C0.34 8 -0.32 8 -1 8 C-1.66 8.66 -2.32 9.32 -3 10 C-2.49287967 6.28111761 -1.88391785 3.26545761 0 0 Z " fill="#192931" transform="translate(30,81)"/>
<path d="M0 0 C-0.33 0.66 -0.66 1.32 -1 2 C-3.109375 2.37890625 -3.109375 2.37890625 -5.75 2.5625 C-9.23832531 2.84236564 -12.5838437 3.20289686 -16 4 C-15 2 -15 2 -12.63671875 1.11328125 C-11.66347656 0.84902344 -10.69023438 0.58476563 -9.6875 0.3125 C-8.72199219 0.04050781 -7.75648437 -0.23148438 -6.76171875 -0.51171875 C-4.04794289 -0.99152353 -2.56334995 -0.90721887 0 0 Z " fill="#C06B57" transform="translate(135,36)"/>
<path d="M0 0 C0 0.99 0 1.98 0 3 C-2.64 3.66 -5.28 4.32 -8 5 C-8.33 4.01 -8.66 3.02 -9 2 C-3.375 0 -3.375 0 0 0 Z " fill="#E0BEB5" transform="translate(81,48)"/>
<path d="M0 0 C2.00720923 0.28674418 4.0085944 0.61866701 6 1 C3.20473202 2.86351199 2.15954373 3.34308907 -1 3.75 C-1.680625 3.84796875 -2.36125 3.9459375 -3.0625 4.046875 C-5 4 -5 4 -8 2 C-6.865625 1.855625 -5.73125 1.71125 -4.5625 1.5625 C-1.19222799 1.38828522 -1.19222799 1.38828522 0 0 Z " fill="#414748" transform="translate(125,31)"/>
<path d="M0 0 C-0.639375 0.103125 -1.27875 0.20625 -1.9375 0.3125 C-2.618125 0.539375 -3.29875 0.76625 -4 1 C-4.33 1.99 -4.66 2.98 -5 4 C-7.31 3.67 -9.62 3.34 -12 3 C-3.7826087 -1.26086957 -3.7826087 -1.26086957 0 0 Z " fill="#F0C8B1" transform="translate(107,142)"/>
<path d="M0 0 C0.33 0 0.66 0 1 0 C2.6290678 4.79137588 3.20577428 8.05632546 2 13 C1.34 12.67 0.68 12.34 0 12 C0 8.04 0 4.08 0 0 Z " fill="#3F4243" transform="translate(143,84)"/>
<path d="M0 0 C-2.87164566 2.70272533 -4.30991841 3.94791837 -8.3125 4.25 C-9.199375 4.1675 -10.08625 4.085 -11 4 C-8.32997607 0.73663741 -4.08378642 -2.04189321 0 0 Z " fill="#444443" transform="translate(69,75)"/>
<path d="M0 0 C0 0.66 0 1.32 0 2 C-1.65 2 -3.3 2 -5 2 C-5 2.99 -5 3.98 -5 5 C-6.32 5 -7.64 5 -9 5 C-9 3.68 -9 2.36 -9 1 C-2.25 0 -2.25 0 0 0 Z " fill="#BB4E3D" transform="translate(76,66)"/>
<path d="M0 0 C-1.95513161 0.696553 -3.91422476 1.38199565 -5.875 2.0625 C-6.96554688 2.44535156 -8.05609375 2.82820313 -9.1796875 3.22265625 C-12 4 -12 4 -14 3 C-12.02741645 0.33121049 -10.89126876 -0.02372318 -7.5625 -0.75 C-4.5073806 -0.96439434 -2.83953853 -0.82377821 0 0 Z " fill="#B55B45" transform="translate(133,52)"/>
<path d="M0 0 C0.66 0.33 1.32 0.66 2 1 C2.042721 2.66611905 2.04063832 4.33382885 2 6 C1 7 1 7 -1.5625 7.0625 C-2.7690625 7.0315625 -2.7690625 7.0315625 -4 7 C-3.67 6.34 -3.34 5.68 -3 5 C-2.01 5 -1.02 5 0 5 C0 4.01 0 3.02 0 2 C-0.99 1.67 -1.98 1.34 -3 1 C-2.01 0.67 -1.02 0.34 0 0 Z " fill="#F4DECC" transform="translate(108,158)"/>
<path d="M0 0 C2 3 2 3 2 5 C-0.31 5 -2.62 5 -5 5 C-5.33 4.34 -5.66 3.68 -6 3 C-4.02 2.67 -2.04 2.34 0 2 C0 1.34 0 0.68 0 0 Z " fill="#FCDEC2" transform="translate(73,102)"/>
<path d="M0 0 C0 0.66 0 1.32 0 2 C-2.8125 3.5625 -2.8125 3.5625 -6 5 C-6.99 4.67 -7.98 4.34 -9 4 C-9.33 3.34 -9.66 2.68 -10 2 C-8.7090864 1.66376204 -7.41723903 1.33110751 -6.125 1 C-5.40570313 0.814375 -4.68640625 0.62875 -3.9453125 0.4375 C-2 0 -2 0 0 0 Z " fill="#3E4041" transform="translate(147,51)"/>
<path d="M0 0 C2.50357861 0.8345262 4.66785852 1.79371992 7 3 C2.6835078 3.76173392 -0.74433453 4.16063604 -5 3 C-2 1 -2 1 0 0 Z " fill="#E6C1B0" transform="translate(152,45)"/>
<path d="M0 0 C0 0.99 0 1.98 0 3 C-2.64 3 -5.28 3 -8 3 C-8 2.34 -8 1.68 -8 1 C-5.07175348 0.02391783 -3.04386724 -0.08226668 0 0 Z " fill="#EDD2CD" transform="translate(145,29)"/>
<path d="M0 0 C1.65 0.33 3.3 0.66 5 1 C5 1.66 5 2.32 5 3 C1.37 3.66 -2.26 4.32 -6 5 C-5.34 4.67 -4.68 4.34 -4 4 C-3.67 3.34 -3.34 2.68 -3 2 C-2.34 2.33 -1.68 2.66 -1 3 C-0.67 2.01 -0.34 1.02 0 0 Z " fill="#F4C7B2" transform="translate(103,114)"/>
<path d="M0 0 C0.99 0.33 1.98 0.66 3 1 C2.67 1.66 2.34 2.32 2 3 C3.65 3.33 5.3 3.66 7 4 C6.34 4.66 5.68 5.32 5 6 C2.875 5.625 2.875 5.625 1 5 C0.67 3.35 0.34 1.7 0 0 Z " fill="#BB3E32" transform="translate(95,102)"/>
<path d="M0 0 C-0.33 0.66 -0.66 1.32 -1 2 C-4.3 2 -7.6 2 -11 2 C-6.98764085 -0.6749061 -4.6342454 -1.48957888 0 0 Z " fill="#B96451" transform="translate(59,96)"/>
<path d="M0 0 C0 0.99 0 1.98 0 3 C-2.97 3 -5.94 3 -9 3 C-9 2.34 -9 1.68 -9 1 C-5.94152152 0.45627049 -3.11227195 0 0 0 Z " fill="#21252A" transform="translate(156,50)"/>
<path d="M0 0 C0.33 0.99 0.66 1.98 1 3 C-1.31 3.66 -3.62 4.32 -6 5 C-6.33 4.01 -6.66 3.02 -7 2 C-2.25 0 -2.25 0 0 0 Z " fill="#E9C9C0" transform="translate(119,36)"/>
<path d="M0 0 C0 1.65 0 3.3 0 5 C-0.99 5.495 -0.99 5.495 -2 6 C-2 5.34 -2 4.68 -2 4 C-2.66 4 -3.32 4 -4 4 C-4 3.34 -4 2.68 -4 2 C-4.66 1.67 -5.32 1.34 -6 1 C-3 0 -3 0 0 0 Z " fill="#B8604C" transform="translate(75,107)"/>
<path d="M0 0 C0 0.99 0 1.98 0 3 C-2.31 3.33 -4.62 3.66 -7 4 C-6.67 3.01 -6.34 2.02 -6 1 C-4 0 -4 0 0 0 Z " fill="#F9DEC8" transform="translate(140,85)"/>
<path d="M0 0 C-5.29230769 3.07692308 -5.29230769 3.07692308 -8.875 2.6875 C-9.57625 2.460625 -10.2775 2.23375 -11 2 C-7.00042393 -0.06874624 -4.43559483 -1.37656391 0 0 Z " fill="#F2BDAE" transform="translate(140,84)"/>
<path d="M0 0 C0.33 0 0.66 0 1 0 C1.33 4.95 1.66 9.9 2 15 C1.01 15 0.02 15 -1 15 C-0.67 10.05 -0.34 5.1 0 0 Z " fill="#252A27" transform="translate(88,157)"/>
<path d="M0 0 C0.33 1.32 0.66 2.64 1 4 C-0.98 4.33 -2.96 4.66 -5 5 C-5 4.01 -5 3.02 -5 2 C-3.35 1.34 -1.7 0.68 0 0 Z " fill="#9E5644" transform="translate(107,137)"/>
<path d="M0 0 C-1.24420647 0.5345256 -2.49570936 1.05208611 -3.75 1.5625 C-4.44609375 1.85253906 -5.1421875 2.14257812 -5.859375 2.44140625 C-8.30012784 3.07831803 -9.6403655 2.80248831 -12 2 C-7.75950782 -0.82699479 -4.85416215 -1.37070821 0 0 Z " fill="#F1DDD2" transform="translate(72,73)"/>
<path d="M0 0 C0 1.32 0 2.64 0 4 C-2.64 4.66 -5.28 5.32 -8 6 C-7.34 5.01 -6.68 4.02 -6 3 C-5.34 3 -4.68 3 -4 3 C-4 2.34 -4 1.68 -4 1 C-2 0 -2 0 0 0 Z " fill="#C9B5B4" transform="translate(51,58)"/>
<path d="M0 0 C0.8971875 0.5259375 0.8971875 0.5259375 1.8125 1.0625 C1.1525 1.7225 0.4925 2.3825 -0.1875 3.0625 C-2.91619407 3.02962417 -5.4841618 2.49852229 -8.1875 2.0625 C-3.10054348 -1.32880435 -3.10054348 -1.32880435 0 0 Z " fill="#DCBEB1" transform="translate(105.1875,163.9375)"/>
<path d="M0 0 C0.99 0.33 1.98 0.66 3 1 C2.67 2.32 2.34 3.64 2 5 C0.35 4.01 -1.3 3.02 -3 2 C-2.01 1.34 -1.02 0.68 0 0 Z " fill="#BB4742" transform="translate(103,117)"/>
<path d="M0 0 C0.33 0.99 0.66 1.98 1 3 C1.66 3 2.32 3 3 3 C3 3.66 3 4.32 3 5 C3.99 5.33 4.98 5.66 6 6 C4.35 6.33 2.7 6.66 1 7 C0.67 4.69 0.34 2.38 0 0 Z " fill="#B14C38" transform="translate(39,90)"/>
<path d="M0 0 C0.66 0.33 1.32 0.66 2 1 C1.01 2.485 1.01 2.485 0 4 C-3.125 4.1875 -3.125 4.1875 -6 4 C-3.94766315 1.7522025 -2.99332739 0.9977758 0 0 Z " fill="#B55540" transform="translate(57,58)"/>
<path d="M0 0 C0 0.99 0 1.98 0 3 C-2.875 3.125 -2.875 3.125 -6 3 C-6.66 2.34 -7.32 1.68 -8 1 C-5.10765685 0.17361624 -3.11257569 0 0 0 Z " fill="#EBDED7" transform="translate(169,22)"/>
<path d="M0 0 C-0.33 1.32 -0.66 2.64 -1 4 C-3.66666667 3.33333333 -6.33333333 2.66666667 -9 2 C-3.375 0 -3.375 0 0 0 Z " fill="#BB5B50" transform="translate(102,139)"/>
<path d="M0 0 C0.33 0.99 0.66 1.98 1 3 C-1.8125 3.625 -1.8125 3.625 -5 4 C-5.99 3.34 -6.98 2.68 -8 2 C-5.36 1.34 -2.72 0.68 0 0 Z " fill="#F5BAA3" transform="translate(107,77)"/>
<path d="M0 0 C0 0.66 0 1.32 0 2 C-2.70879335 3.35439668 -5.00933268 3.06501451 -8 3 C-6.23110084 -0.53779831 -3.70375662 0 0 0 Z " fill="#FDDED3" transform="translate(162,44)"/>
</svg>
